<svg width="24" height="33" viewBox="0 0 24 33" fill="none" xmlns="http://www.w3.org/2000/svg">
<path fill-rule="evenodd" clip-rule="evenodd" d="M12 26.9085C13.5913 26.9085 15.1174 26.2764 16.2426 25.1511C17.3679 24.0259 18 22.4998 18 20.9085C18 19.3172 17.3679 17.7911 16.2426 16.6659C15.1174 15.5406 13.5913 14.9085 12 14.9085C10.4087 14.9085 8.88258 15.5406 7.75736 16.6659C6.63214 17.7911 6 19.3172 6 20.9085C6 22.4998 6.63214 24.0259 7.75736 25.1511C8.88258 26.2764 10.4087 26.9085 12 26.9085ZM12 23.9085C12.7956 23.9085 13.5587 23.5924 14.1213 23.0298C14.6839 22.4672 15 21.7042 15 20.9085C15 20.1129 14.6839 19.3498 14.1213 18.7872C13.5587 18.2246 12.7956 17.9085 12 17.9085C11.2044 17.9085 10.4413 18.2246 9.87868 18.7872C9.31607 19.3498 9 20.1129 9 20.9085C9 21.7042 9.31607 22.4672 9.87868 23.0298C10.4413 23.5924 11.2044 23.9085 12 23.9085Z" fill="#2D836E"/>
<path d="M12 12.066C12.7956 12.066 13.5587 11.75 14.1213 11.1874C14.6839 10.6248 15 9.86169 15 9.06604C15 8.27039 14.6839 7.50733 14.1213 6.94472C13.5587 6.38211 12.7956 6.06604 12 6.06604C11.2044 6.06604 10.4413 6.38211 9.87868 6.94472C9.31607 7.50733 9 8.27039 9 9.06604C9 9.86169 9.31607 10.6248 9.87868 11.1874C10.4413 11.75 11.2044 12.066 12 12.066Z" fill="#2D836E"/>
<path fill-rule="evenodd" clip-rule="evenodd" d="M4.5 0C3.30653 0 2.16193 0.474106 1.31802 1.31802C0.474106 2.16193 0 3.30653 0 4.5V28.5C0 29.6935 0.474106 30.8381 1.31802 31.682C2.16193 32.5259 3.30653 33 4.5 33H19.5C20.6935 33 21.8381 32.5259 22.682 31.682C23.5259 30.8381 24 29.6935 24 28.5V4.5C24 3.30653 23.5259 2.16193 22.682 1.31802C21.8381 0.474106 20.6935 0 19.5 0H4.5ZM19.5 3H4.5C4.10218 3 3.72064 3.15804 3.43934 3.43934C3.15804 3.72064 3 4.10218 3 4.5V28.5C3 28.8978 3.15804 29.2794 3.43934 29.5607C3.72064 29.842 4.10218 30 4.5 30H19.5C19.8978 30 20.2794 29.842 20.5607 29.5607C20.842 29.2794 21 28.8978 21 28.5V4.5C21 4.10218 20.842 3.72064 20.5607 3.43934C20.2794 3.15804 19.8978 3 19.5 3Z" fill="#2D836E"/>
</svg>
