<svg width="40" height="46" viewBox="0 0 40 46" fill="none" xmlns="http://www.w3.org/2000/svg">
<path d="M31.4218 0H4.2848C1.91834 0 0 1.91834 0 4.2848V29.9936C0 31.2576 0.557559 32.3824 1.42827 33.1661V40.4288C0.589784 40.9287 0 41.8035 0 42.7676C0 44.428 1.27919 45.7045 2.77619 45.7045H31.3415C36.0744 45.7045 39.9111 41.8678 39.9111 37.1349V8.56959C39.9914 3.83668 36.153 0 31.4218 0ZM28.9938 15.211C29.2621 15.2494 29.3772 15.5818 29.1727 15.7735L27.3334 17.5766L27.7681 20.1207C27.8065 20.338 27.6274 20.5169 27.4355 20.5169C27.3845 20.5169 27.3333 20.5041 27.2821 20.4786L24.9946 19.2727L22.7067 20.4742C22.6557 20.4996 22.6045 20.5126 22.5533 20.5126C22.3617 20.5126 22.1827 20.3335 22.221 20.1162L22.6556 17.5721L20.8149 15.7698C20.6104 15.5784 20.7255 15.2458 20.994 15.2075L23.5506 14.8368L24.7012 12.523C24.7536 12.3991 24.8786 12.3366 24.9946 12.3366C25.1107 12.3366 25.2375 12.4006 25.2888 12.5284L26.4394 14.8422L28.9938 15.211ZM19.2816 6.42719C21.3936 6.42719 23.4423 7.04786 25.2053 8.22056C25.4927 8.41168 25.6015 8.78124 25.4647 9.0993C25.3266 9.41593 24.9779 9.5958 24.646 9.50939C23.9949 9.35514 23.4057 9.28373 22.8522 9.28373C18.5228 9.28373 14.9968 12.8098 14.9968 17.1392C14.9968 21.4686 18.5228 24.9946 22.8522 24.9946C23.4087 24.9946 23.9958 24.9207 24.6456 24.7687C24.9776 24.6822 25.3263 24.8622 25.4644 25.1788C25.601 25.4968 25.4923 25.8664 25.205 26.0575C23.4414 27.2263 21.3972 27.8512 19.2816 27.8512C13.3721 27.8512 8.56959 23.0486 8.56959 17.1392C8.56959 11.2297 13.3721 6.42719 19.2816 6.42719ZM31.4218 39.9914H5.71306V34.2784H31.4218C32.9992 34.2784 34.2784 35.5576 34.2784 37.1349C34.2784 38.7149 33.0019 39.9914 31.4218 39.9914Z" fill="white"/>
</svg>
