<svg width="16" height="16" viewBox="0 0 16 16" fill="none" xmlns="http://www.w3.org/2000/svg">
<path d="M7.75 2C4.5745 2 2 4.5745 2 7.75V9H4C4.13261 9 4.25979 9.05268 4.35355 9.14645C4.44732 9.24021 4.5 9.36739 4.5 9.5V14.5C4.5 14.6326 4.44732 14.7598 4.35355 14.8536C4.25979 14.9473 4.13261 15 4 15H3.25C2.65326 15 2.08097 14.7629 1.65901 14.341C1.23705 13.919 1 13.3467 1 12.75V7.75C1 4.022 4.022 1 7.75 1C11.478 1 14.5 4.022 14.5 7.75V12.75C14.5 13.3467 14.2629 13.919 13.841 14.341C13.419 14.7629 12.8467 15 12.25 15H11.5C11.3674 15 11.2402 14.9473 11.1464 14.8536C11.0527 14.7598 11 14.6326 11 14.5V9.5C11 9.36739 11.0527 9.24021 11.1464 9.14645C11.2402 9.05268 11.3674 9 11.5 9H13.5V7.75C13.5 4.5745 10.9255 2 7.75 2ZM8.25 8.5C8.25 8.36739 8.19732 8.24021 8.10355 8.14645C8.00979 8.05268 7.88261 8 7.75 8C7.61739 8 7.49021 8.05268 7.39645 8.14645C7.30268 8.24021 7.25 8.36739 7.25 8.5V15C7.25 15.1326 7.30268 15.2598 7.39645 15.3536C7.49021 15.4473 7.61739 15.5 7.75 15.5C7.88261 15.5 8.00979 15.4473 8.10355 15.3536C8.19732 15.2598 8.25 15.1326 8.25 15V8.5ZM6 10C6.13261 10 6.25979 10.0527 6.35355 10.1464C6.44732 10.2402 6.5 10.3674 6.5 10.5V13C6.5 13.1326 6.44732 13.2598 6.35355 13.3536C6.25979 13.4473 6.13261 13.5 6 13.5C5.86739 13.5 5.74021 13.4473 5.64645 13.3536C5.55268 13.2598 5.5 13.1326 5.5 13V10.5C5.5 10.3674 5.55268 10.2402 5.64645 10.1464C5.74021 10.0527 5.86739 10 6 10ZM10 10.5C10 10.3674 9.94732 10.2402 9.85355 10.1464C9.75979 10.0527 9.63261 10 9.5 10C9.36739 10 9.24021 10.0527 9.14645 10.1464C9.05268 10.2402 9 10.3674 9 10.5V13C9 13.1326 9.05268 13.2598 9.14645 13.3536C9.24021 13.4473 9.36739 13.5 9.5 13.5C9.63261 13.5 9.75979 13.4473 9.85355 13.3536C9.94732 13.2598 10 13.1326 10 13V10.5Z" fill="white"/>
</svg>
