<svg width="25" height="18" viewBox="0 0 25 18" fill="none" xmlns="http://www.w3.org/2000/svg">
<g clip-path="url(#clip0_2_6398)">
<path d="M5.25135 0H0.75135C0.33885 0 0.0013504 0.3375 0.0013504 0.75V17.25C0.0013504 17.6625 0.33885 18 0.75135 18H5.25135C5.66385 18 6.00135 17.6625 6.00135 17.25V0.75C6.00135 0.3375 5.66385 0 5.25135 0ZM4.50135 4.5H1.50135V3H4.50135V4.5ZM12.7514 0H8.25135C7.83885 0 7.50135 0.3375 7.50135 0.75V17.25C7.50135 17.6625 7.83885 18 8.25135 18H12.7514C13.1639 18 13.5014 17.6625 13.5014 17.25V0.75C13.5014 0.3375 13.1639 0 12.7514 0ZM12.0014 4.5H9.00135V3H12.0014V4.5Z" fill="#21605D"/>
<path d="M17.3344 0.0837959L13.4028 2.23843C13.2297 2.33417 13.0983 2.50041 13.0373 2.70098C12.9763 2.90155 12.9906 3.1202 13.077 3.30937L19.6809 17.5619C19.769 17.7502 19.9218 17.8931 20.1062 17.9594C20.2907 18.0258 20.4917 18.0103 20.6656 17.9162L24.5972 15.7616C24.7703 15.6658 24.9017 15.4996 24.9627 15.299C25.0237 15.0985 25.0094 14.8798 24.923 14.6906L18.3191 0.438114C18.231 0.249794 18.0782 0.106908 17.8938 0.0405511C17.7093 -0.0258062 17.5083 -0.0102638 17.3344 0.0837959Z" fill="#21605D"/>
</g>
<defs>
<clipPath id="clip0_2_6398">
<rect width="25" height="18" fill="white"/>
</clipPath>
</defs>
</svg>
