<svg width="24" height="24" viewBox="0 0 24 24" fill="none" xmlns="http://www.w3.org/2000/svg">
<path fill-rule="evenodd" clip-rule="evenodd" d="M20.75 9C20.75 8.58579 20.4142 8.25 20 8.25L4 8.25C3.58579 8.25 3.25 8.58579 3.25 9C3.25 9.41422 3.58579 9.75 4 9.75L20 9.75C20.4142 9.75 20.75 9.41421 20.75 9Z" fill="#21605D"/>
<path fill-rule="evenodd" clip-rule="evenodd" d="M20.75 15C20.75 14.5858 20.4142 14.25 20 14.25L12 14.25C11.5858 14.25 11.25 14.5858 11.25 15C11.25 15.4142 11.5858 15.75 12 15.75L20 15.75C20.4142 15.75 20.75 15.4142 20.75 15Z" fill="#21605D"/>
</svg>
